HIERARCHY
ROOT Hips
{
	OFFSET 0.000000 0.000000 0.000000
	CHANNELS 6 Xposition Yposition Zposition Zrotation Yrotation Xrotation 
	JOINT LHipJoint
	{
		OFFSET 0.000000 0.000000 0.000000
		CHANNELS 3 Zrotation Yrotation Xrotation
		JOINT LeftUpLeg
		{
			OFFSET 1.363060 -1.794630 0.839290
			CHANNELS 3 Zrotation Yrotation Xrotation
			JOINT LeftLeg
			{
				OFFSET 2.448110 -6.726130 0.000000
				CHANNELS 3 Zrotation Yrotation Xrotation
				JOINT LeftFoot
				{
					OFFSET 2.562200 -7.039590 0.000000
					CHANNELS 3 Zrotation Yrotation Xrotation
					JOINT LeftToeBase
					{
						OFFSET 0.157640 -0.433110 2.322550
						CHANNELS 3 Zrotation Yrotation Xrotation
						End Site
						{
							OFFSET 0.000000 0.000000 0.000000
						}
					}
				}
			}
		}
	}
	JOINT RHipJoint
	{
		OFFSET 0.000000 0.000000 0.000000
		CHANNELS 3 Zrotation Yrotation Xrotation
		JOINT RightUpLeg
		{
			OFFSET -1.305520 -1.794630 0.839290
			CHANNELS 3 Zrotation Yrotation Xrotation
			JOINT RightLeg
			{
				OFFSET -2.542530 -6.985550 0.000000
				CHANNELS 3 Zrotation Yrotation Xrotation
				JOINT RightFoot
				{
					OFFSET -2.568260 -7.056230 0.000000
					CHANNELS 3 Zrotation Yrotation Xrotation
					JOINT RightToeBase
					{
						OFFSET -0.164730 -0.452590 2.363150
						CHANNELS 3 Zrotation Yrotation Xrotation
						End Site
						{
							OFFSET 0.000000 0.000000 0.000000
						}
					}
				}
			}
		}
	}
	JOINT LowerBack
	{
		OFFSET 0.000000 0.000000 0.000000
		CHANNELS 3 Zrotation Yrotation Xrotation
		JOINT Spine
		{
			OFFSET 0.028270 2.035590 -0.193380
			CHANNELS 3 Zrotation Yrotation Xrotation
			JOINT Spine1
			{
				OFFSET 0.056720 2.048850 -0.042750
				CHANNELS 3 Zrotation Yrotation Xrotation
				JOINT Neck
				{
					OFFSET 0.000000 0.000000 0.000000
					CHANNELS 3 Zrotation Yrotation Xrotation
					JOINT Neck1
					{
						OFFSET -0.054170 1.746240 0.172020
						CHANNELS 3 Zrotation Yrotation Xrotation
						JOINT Head
						{
							OFFSET 0.104070 1.761360 -0.123970
							CHANNELS 3 Zrotation Yrotation Xrotation
							End Site
							{
								OFFSET 0.000000 0.000000 0.000000
							}
						}
					}
				}
				JOINT LeftShoulder
				{
					OFFSET 0.000000 0.000000 0.000000
					CHANNELS 3 Zrotation Yrotation Xrotation
					JOINT LeftArm
					{
						OFFSET 3.362410 1.200890 -0.311210
						CHANNELS 3 Zrotation Yrotation Xrotation
						JOINT LeftForeArm
						{
							OFFSET 4.983000 -0.000000 -0.000000
							CHANNELS 3 Zrotation Yrotation Xrotation
							JOINT LeftHand
							{
								OFFSET 3.483560 -0.000000 -0.000000
								CHANNELS 3 Zrotation Yrotation Xrotation
								JOINT LeftFingerBase
								{
									OFFSET 0.000000 0.000000 0.000000
									CHANNELS 3 Zrotation Yrotation Xrotation
									JOINT LeftHandIndex1
									{
										OFFSET 0.715260 -0.000000 -0.000000
										CHANNELS 3 Zrotation Yrotation Xrotation
										End Site
										{
											OFFSET 0.000000 0.000000 0.000000
										}
									}
								}
								JOINT LThumb
								{
									OFFSET 0.000000 0.000000 0.000000
									CHANNELS 3 Zrotation Yrotation Xrotation
									End Site
									{
										OFFSET 0.000000 0.000000 0.000000
									}
								}
							}
						}
					}
				}
				JOINT RightShoulder
				{
					OFFSET 0.000000 0.000000 0.000000
					CHANNELS 3 Zrotation Yrotation Xrotation
					JOINT RightArm
					{
						OFFSET -3.136600 1.374050 -0.404650
						CHANNELS 3 Zrotation Yrotation Xrotation
						JOINT RightForeArm
						{
							OFFSET -5.241900 -0.000000 -0.000000
							CHANNELS 3 Zrotation Yrotation Xrotation
							JOINT RightHand
							{
								OFFSET -3.444170 -0.000000 -0.000000
								CHANNELS 3 Zrotation Yrotation Xrotation
								JOINT RightFingerBase
								{
									OFFSET 0.000000 0.000000 0.000000
									CHANNELS 3 Zrotation Yrotation Xrotation
									JOINT RightHandIndex1
									{
										OFFSET -0.622530 -0.000000 -0.000000
										CHANNELS 3 Zrotation Yrotation Xrotation
										End Site
										{
											OFFSET 0.000000 0.000000 0.000000
										}
									}
								}
								JOINT RThumb
								{
									OFFSET 0.000000 0.000000 0.000000
									CHANNELS 3 Zrotation Yrotation Xrotation
									End Site
									{
										OFFSET 0.000000 0.000000 0.000000
									}
								}
							}
						}
					}
				}
			}
		}
	}
}
MOTION
Frames: 8
Frame Time: 0.008333
9.384976 17.806503 49.910983 -177.624722 -19.185922 179.376552 -1.475466 3.042057 0.905719 -15.334670 -26.728564 -4.169916 -1.424495 9.612787 27.353721 1.241758 0.827480 0.678369 3.498700 -11.461600 -33.852900 -2.269272 -3.102536 1.158991 23.716619 6.627064 -4.673722 1.583299 -8.911766 28.076581 6.646994 -24.012565 -21.143935 -0.157700 -2.559000 7.053200 3.870552 2.067017 6.630558 2.310945 3.290399 1.382768 -5.084394 1.135770 -11.465916 5.319351 12.493219 -10.126704 7.093016 15.932342 15.418798 -0.407100 8.779500 5.822800 -2.191502 -9.797084 1.143399 -88.958006 7.849614 20.739251 22.793173 -22.746688 -5.988240 1.677659 1.180418 13.131693 9.359937 -31.999345 -4.473900 -7.125000 0.000000 0.000000 -13.456300 -3.148200 14.573900 0.502391 11.739136 2.828512 89.326679 -14.136368 39.037744 -21.074898 24.303700 -6.278464 1.352685 0.707726 13.230897 -13.791466 -54.494724 12.341400 7.125000 0.000000 0.000000 74.817900 -77.306200 -61.922400 
9.384502 17.807333 49.910509 -177.603356 -19.174826 179.386824 -1.473746 3.035130 0.903045 -15.303751 -26.703841 -4.211743 -1.420597 9.618447 27.367221 1.254116 0.802294 0.675950 3.620300 -11.637200 -34.460200 -2.271941 -3.099587 1.156671 23.743077 6.607214 -4.686352 1.578828 -8.918484 28.096383 6.640900 -23.998958 -21.137817 -0.157800 -2.559800 7.055500 3.891790 2.071168 6.589036 2.296547 3.293924 1.375195 -5.094740 1.136963 -11.438277 5.311164 12.461810 -10.135120 7.049178 15.898499 15.359244 -0.425600 8.755900 5.806100 -2.190790 -9.802841 1.149588 -88.817113 7.832782 21.129977 22.714105 -22.637142 -5.940796 1.675286 1.179064 12.596468 9.087530 -31.790647 -4.287900 -7.125000 0.000000 0.000000 -13.598100 -2.890400 14.677700 0.503139 11.735981 2.827427 89.351376 -14.133963 39.040842 -21.089716 24.325476 -6.289358 1.348446 0.714153 13.213164 -13.479741 -54.612619 12.094200 7.125000 0.000000 0.000000 75.424700 -77.201800 -62.390500 
9.385214 17.804723 49.913000 -177.481698 -19.181725 179.362044 -1.463945 3.026826 0.902429 -15.159931 -26.665499 -4.292847 -1.415416 9.621898 27.375601 1.253034 0.813320 0.755869 3.680000 -11.721900 -34.755100 -2.273055 -3.093451 1.149342 23.883230 6.640522 -4.670230 1.589897 -8.911313 28.056865 6.702747 -24.167918 -21.122823 -0.118000 -2.214600 6.099100 3.979960 2.071239 6.573289 2.359030 3.302562 1.389329 -5.129179 1.136516 -11.420453 5.204517 12.399053 -10.205266 6.983446 15.837703 15.235986 -0.444600 8.709600 5.771600 -2.192731 -9.817903 1.148418 -88.939883 7.824622 20.609905 22.858428 -22.817355 -6.003205 1.698295 1.146559 12.853784 8.564025 -31.696947 -3.969900 -7.125000 0.000000 0.000000 -13.890600 -2.703400 14.968900 0.499098 11.731600 2.830574 89.327462 -14.097421 39.093519 -21.103718 24.342899 -6.300174 1.343911 0.721582 13.164001 -13.112217 -54.732720 11.800100 7.125000 0.000000 0.000000 76.047000 -77.076400 -62.851800 
9.385807 17.803892 49.912288 -177.503343 -19.195320 179.360509 -1.464715 3.028046 0.901252 -15.188578 -26.701403 -4.272524 -1.410768 9.624820 27.389398 1.297722 0.706103 0.743353 3.616300 -11.631500 -34.440400 -2.270740 -3.098446 1.153479 23.867072 6.676833 -4.646189 1.597278 -8.899823 28.017476 6.757044 -24.297471 -21.104572 -0.095900 -1.996700 5.496600 3.916582 2.078736 6.537489 2.389431 3.302247 1.420666 -5.081941 1.145059 -11.391738 5.104008 12.369011 -10.241144 6.970403 15.808309 15.161841 -0.442100 8.685000 5.743000 -2.195070 -9.828445 1.156194 -88.818202 7.800097 21.220552 22.772760 -22.695760 -5.961229 1.670139 1.172449 12.436956 8.993393 -31.642735 -4.216700 -7.125000 0.000000 0.000000 -13.640500 -2.721400 14.687400 0.497116 11.726342 2.830747 89.257263 -14.079389 39.169155 -21.098951 24.336992 -6.299807 1.346365 0.719177 13.120990 -13.355271 -54.731110 12.005700 7.125000 0.000000 0.000000 75.978700 -77.168100 -62.886600 
9.386875 17.804960 49.906830 -177.592567 -19.175626 179.392861 -1.470499 3.033133 0.903780 -15.285803 -26.723976 -4.215954 -1.409131 9.627646 27.401553 1.322665 0.643482 0.670079 3.589200 -11.592700 -34.305900 -2.269044 -3.106675 1.160878 23.782026 6.758635 -4.601393 1.605272 -8.886677 27.984543 6.763514 -24.311718 -21.131856 -0.110000 -2.138200 5.887700 3.800469 2.095256 6.468008 2.364754 3.305632 1.434846 -5.025856 1.157807 -11.358112 5.076965 12.369005 -10.213756 6.996181 15.802628 15.142214 -0.434600 8.681500 5.727800 -2.194329 -9.833043 1.152231 -88.961493 7.826229 20.654993 22.876123 -22.835570 -6.018050 1.681725 1.164680 13.136510 9.142279 -31.831125 -4.325800 -7.125000 0.000000 0.000000 -13.568000 -2.938100 14.654200 0.497941 11.722772 2.830885 89.271356 -14.107683 39.101413 -21.100247 24.334337 -6.297477 1.350297 0.711474 13.243758 -13.619749 -54.669301 12.220400 7.125000 0.000000 0.000000 75.638000 -77.261300 -62.660700 
9.387349 17.805435 49.903627 -177.585707 -19.165040 179.401899 -1.469747 3.035039 0.907422 -15.271416 -26.703769 -4.204755 -1.413013 9.623102 27.388299 1.301894 0.696869 0.649590 3.542100 -11.524700 -34.070700 -2.268956 -3.107716 1.160477 23.801241 6.863585 -4.549895 1.613079 -8.883762 27.979557 6.734216 -24.271912 -21.226690 -0.131500 -2.337500 6.439300 3.793959 2.094102 6.434492 2.371440 3.300549 1.411494 -5.016109 1.155649 -11.345210 5.090349 12.389745 -10.136377 6.981634 15.827303 15.104213 -0.446200 8.691400 5.707200 -2.194768 -9.834442 1.158211 -88.832575 7.840338 21.110641 22.777432 -22.701873 -5.964830 1.668505 1.176246 12.567188 9.134671 -31.697208 -4.305900 -7.125000 0.000000 0.000000 -13.563400 -2.801500 14.617900 0.498891 11.715900 2.830383 89.297782 -14.173486 39.028072 -21.124622 24.360734 -6.303532 1.350657 0.706227 13.378812 -13.508810 -54.579467 12.114200 7.125000 0.000000 0.000000 75.255400 -77.208800 -62.235600 
9.384976 17.804604 49.904101 -177.618132 -19.168962 179.421622 -1.465930 3.019074 0.912436 -15.268213 -26.527587 -4.305950 -1.414465 9.624538 27.386725 1.363000 0.555385 0.702185 3.481900 -11.437000 -33.768300 -2.269005 -3.102536 1.157519 23.746558 6.838728 -4.567977 1.610759 -8.882312 27.982761 6.704662 -24.185004 -21.213877 -0.128900 -2.313800 6.373800 3.799904 2.074652 6.436005 2.347593 3.274796 1.378896 -5.026712 1.141628 -11.358916 5.162943 12.415827 -10.078792 6.928478 15.865551 15.092122 -0.472900 8.709900 5.708700 -2.195245 -9.830789 1.150694 -88.926108 7.825848 20.699518 22.830256 -22.765263 -5.975632 1.681310 1.151906 12.750067 8.814199 -31.439586 -4.089200 -7.125000 0.000000 0.000000 -13.730500 -2.487800 14.735900 0.502747 11.719506 2.833497 89.277548 -14.198232 39.142180 -21.123614 24.358720 -6.303085 1.349660 0.707999 13.333456 -13.405424 -54.561854 12.025000 7.125000 0.000000 0.000000 75.202600 -77.167700 -62.140000 
9.383790 17.802587 49.905525 -177.636347 -19.172786 179.452800 -1.464289 3.000796 0.913188 -15.240525 -26.393962 -4.415856 -1.412316 9.625835 27.387944 1.467836 0.307923 0.806468 3.420200 -11.346000 -33.455800 -2.270264 -3.093181 1.150593 23.706255 6.785186 -4.633495 1.606083 -8.886707 27.988473 6.707969 -24.167082 -21.154695 -0.112100 -2.158600 5.944200 3.805037 2.045863 6.434544 2.291934 3.235196 1.339225 -5.031419 1.120751 -11.366288 5.280235 12.433299 -10.095336 6.906619 15.886087 15.137919 -0.485400 8.726400 5.738000 -2.187510 -9.817229 1.154967 -88.804112 7.895695 21.023134 22.821136 -22.741078 -5.964810 1.663183 1.160426 12.429004 8.973502 -31.304218 -4.167900 -7.125000 0.000000 0.000000 -13.628800 -2.375600 14.594400 0.504945 11.725455 2.830490 89.295128 -14.158645 39.265314 -21.088859 24.323687 -6.291498 1.347452 0.714314 13.284914 -13.154364 -54.633584 11.823700 7.125000 0.000000 0.000000 75.588200 -77.081600 -62.416000 
